<svg xmlns="http://www.w3.org/2000/svg" width="300" height="300" viewBox="0 0 300 300">
    <path fill="#65459B" d="M300 285c0 8.284-6.716 15-15 15H15c-8.284 0-15-6.716-15-15V15C0 6.716 6.716 0 15 0h270c8.284 0 15 6.716 15 15v270z"/>
    <path fill-rule="evenodd" clip-rule="evenodd" fill="#FFF" d="M195.263 223.9h-39.118L130.07 250h-26.1v-26.1H56.168V84.783L69.21 50h178.224v121.75l-52.17 52.15zm34.787-60.866V67.38H86.587v126.093h39.146v26.063l26.067-26.063h47.812l30.438-30.44z"/>
    <path fill="#FFF" d="M182.227 102.183v52.17h17.386v-52.17h-17.386zm-47.817 52.17h17.39v-52.17h-17.39v52.17z"/>
</svg>
